<svg xmlns="http://www.w3.org/2000/svg" xmlns:xlink="http://www.w3.org/1999/xlink" width="500" zoomAndPan="magnify" viewBox="0 0 375 374.999991" height="500" preserveAspectRatio="xMidYMid meet" version="1.0"><defs><clipPath id="0ba52364fd"><path d="M 165.226562 97.570312 L 200.476562 97.570312 L 200.476562 135.070312 L 165.226562 135.070312 Z M 165.226562 97.570312 " clip-rule="nonzero"/></clipPath><clipPath id="bed3f76f2a"><path d="M 97.386719 172.09375 L 125.136719 172.09375 L 125.136719 203.59375 L 97.386719 203.59375 Z M 97.386719 172.09375 " clip-rule="nonzero"/></clipPath><clipPath id="b28caccb24"><path d="M 128.191406 136.445312 L 161.941406 136.445312 L 161.941406 169.445312 L 128.191406 169.445312 Z M 128.191406 136.445312 " clip-rule="nonzero"/></clipPath><clipPath id="b8a618292e"><path d="M 164 171 L 200 171 L 200 204 L 164 204 Z M 164 171 " clip-rule="nonzero"/></clipPath><clipPath id="d1e27c6948"><path d="M 199.304688 171.484375 L 199.933594 202.980469 L 165.441406 203.667969 L 164.8125 172.175781 Z M 199.304688 171.484375 " clip-rule="nonzero"/></clipPath><clipPath id="faef72e280"><path d="M 202 135 L 237 135 L 237 168 L 202 168 Z M 202 135 " clip-rule="nonzero"/></clipPath><clipPath id="e40ea5f818"><path d="M 236.882812 135.660156 L 237.511719 167.15625 L 203.019531 167.847656 L 202.390625 136.351562 Z M 236.882812 135.660156 " clip-rule="nonzero"/></clipPath><clipPath id="38eda05fe9"><path d="M 226 165 L 236 165 L 236 184 L 226 184 Z M 226 165 " clip-rule="nonzero"/></clipPath><clipPath id="f8310feb28"><path d="M 226.207031 183.488281 L 217.152344 175.617188 L 226.007812 165.429688 L 235.066406 173.300781 Z M 226.207031 183.488281 " clip-rule="nonzero"/></clipPath><clipPath id="48ab348169"><path d="M 111 121 L 126 121 L 126 134 L 111 134 Z M 111 121 " clip-rule="nonzero"/></clipPath><clipPath id="13860e3dcf"><path d="M 111.484375 133.59375 L 111.816406 121.597656 L 125.3125 121.96875 L 124.980469 133.964844 Z M 111.484375 133.59375 " clip-rule="nonzero"/></clipPath><clipPath id="f83f032445"><path d="M 113 242 L 124 242 L 124 248 L 113 248 Z M 113 242 " clip-rule="nonzero"/></clipPath><clipPath id="22e0832f7a"><path d="M 113.90625 243.011719 L 118.140625 237.75 L 123.984375 242.453125 L 119.75 247.710938 Z M 113.90625 243.011719 " clip-rule="nonzero"/></clipPath><clipPath id="d5b5953285"><path d="M 127 205 L 164 205 L 164 239 L 127 239 Z M 127 205 " clip-rule="nonzero"/></clipPath><clipPath id="2f15ed08ea"><path d="M 163.082031 205.980469 L 163.726562 238.222656 L 128.484375 238.929688 L 127.835938 206.683594 Z M 163.082031 205.980469 " clip-rule="nonzero"/></clipPath><clipPath id="9c727f90c3"><path d="M 120 124 L 278 124 L 278 278 L 120 278 Z M 120 124 " clip-rule="nonzero"/></clipPath><clipPath id="969b084c58"><path d="M 120.851562 249.757812 L 251.96875 124.261719 L 314.71875 189.820312 L 183.597656 315.320312 Z M 120.851562 249.757812 " clip-rule="nonzero"/></clipPath><clipPath id="793778bbed"><path d="M 120.851562 249.757812 L 251.96875 124.261719 L 314.71875 189.820312 L 183.597656 315.320312 Z M 120.851562 249.757812 " clip-rule="nonzero"/></clipPath><clipPath id="2e474bb3ae"><path d="M 185.519531 214.453125 L 232.050781 214.453125 L 232.050781 260.988281 L 185.519531 260.988281 Z M 185.519531 214.453125 " clip-rule="nonzero"/></clipPath><clipPath id="02e1280363"><path d="M 201.503906 162.09375 L 237.503906 162.09375 L 237.503906 170.34375 L 201.503906 170.34375 Z M 201.503906 162.09375 " clip-rule="nonzero"/></clipPath><clipPath id="f9aee43572"><path d="M 229.742188 255.386719 L 244.742188 255.386719 L 244.742188 259.136719 L 229.742188 259.136719 Z M 229.742188 255.386719 " clip-rule="nonzero"/></clipPath><clipPath id="e8b2a5c104"><path d="M 229.859375 252.078125 L 244.859375 252.078125 L 244.859375 255.828125 L 229.859375 255.828125 Z M 229.859375 252.078125 " clip-rule="nonzero"/></clipPath><clipPath id="b150ceb5eb"><path d="M 182.09375 210.648438 L 235.34375 210.648438 L 235.34375 263.898438 L 182.09375 263.898438 Z M 182.09375 210.648438 " clip-rule="nonzero"/></clipPath><clipPath id="8f74831fe1"><path d="M 91.875 91.875 L 282.972656 91.875 L 282.972656 282.972656 L 91.875 282.972656 Z M 91.875 91.875 " clip-rule="nonzero"/></clipPath></defs><path stroke-linecap="butt" transform="matrix(2.168362, -2.076295, 2.074821, 2.166822, 120.016777, 248.678216)" fill="none" stroke-linejoin="miter" d="M -0.000616325 0.0000886813 L 60.45866 0.000109414 " stroke="#d4af03" stroke-width="1" stroke-opacity="1" stroke-miterlimit="4"/><g clip-path="url(#0ba52364fd)"><path fill="#bc1823" d="M 165.226562 97.574219 L 200.476562 97.574219 L 200.476562 135.070312 L 165.226562 135.070312 L 165.226562 97.574219 " fill-opacity="1" fill-rule="nonzero"/></g><path stroke-linecap="butt" transform="matrix(0.000000000000000184, -2.99934, 3, 0.000000000000000184, 163.726151, 206.732053)" fill="none" stroke-linejoin="miter" d="M 0.000528141 0.000137317 L 35.509646 0.000137317 " stroke="#d4af03" stroke-width="1" stroke-opacity="1" stroke-miterlimit="4"/><path stroke-linecap="butt" transform="matrix(0.000000000000000184, -2.998144, 3, 0.000000000000000184, 202.185387, 169.84471)" fill="none" stroke-linejoin="miter" d="M 0.000320347 -0.000597824 L 25.265947 -0.000597824 " stroke="#d4af03" stroke-width="1" stroke-opacity="1" stroke-miterlimit="4"/><path stroke-linecap="butt" transform="matrix(0.000000000000000183, -2.991236, 3, 0.000000000000000184, 239.007922, 134.190591)" fill="none" stroke-linejoin="miter" d="M -0.000272483 -0.0000366351 L 8.027083 -0.0000366351 " stroke="#d4af03" stroke-width="1" stroke-opacity="1" stroke-miterlimit="4"/><path stroke-linecap="butt" transform="matrix(0.000000000000000184, -2.998307, 3, 0.000000000000000184, 126.689367, 242.732679)" fill="none" stroke-linejoin="miter" d="M -0.000565566 -0.00062246 L 41.52548 -0.00062246 " stroke="#d4af03" stroke-width="1" stroke-opacity="1" stroke-miterlimit="4"/><path stroke-linecap="butt" transform="matrix(-3.001909, -0.000000000000000368, 0.000000000000000367, -3, 237.508055, 134.946274)" fill="none" stroke-linejoin="miter" d="M 0.0000806166 0.000320613 L 42.974038 0.000320613 " stroke="#d4af03" stroke-width="1" stroke-opacity="1" stroke-miterlimit="4"/><path stroke-linecap="butt" transform="matrix(-3.006126, -0.000000000000000368, 0.000000000000000367, -3, 200.674707, 170.595253)" fill="none" stroke-linejoin="miter" d="M -0.000357246 0.000500933 L 34.433232 0.000500933 " stroke="#d4af03" stroke-width="1" stroke-opacity="1" stroke-miterlimit="4"/><path stroke-linecap="butt" transform="matrix(-2.984276, -0.000000000000000365, 0.000000000000000367, -3, 162.225476, 205.233913)" fill="none" stroke-linejoin="miter" d="M -0.000363992 -0.000154026 L 21.614227 -0.000154026 " stroke="#d4af03" stroke-width="1" stroke-opacity="1" stroke-miterlimit="4"/><path stroke-linecap="butt" transform="matrix(-2.964578, -0.000000000000000363, 0.000000000000000367, -3, 126.687447, 241.806752)" fill="none" stroke-linejoin="miter" d="M -0.0000177493 -0.000613876 L 4.302081 -0.000613876 " stroke="#d4af03" stroke-width="1" stroke-opacity="1" stroke-miterlimit="4"/><g clip-path="url(#bed3f76f2a)"><path fill="#bc1823" d="M 97.386719 172.097656 L 125.136719 172.097656 L 125.136719 203.59375 L 97.386719 203.59375 L 97.386719 172.097656 " fill-opacity="1" fill-rule="nonzero"/></g><g clip-path="url(#b28caccb24)"><path fill="#bc1823" d="M 128.191406 136.449219 L 161.941406 136.449219 L 161.941406 169.445312 L 128.191406 169.445312 L 128.191406 136.449219 " fill-opacity="1" fill-rule="nonzero"/></g><g clip-path="url(#b8a618292e)"><g clip-path="url(#d1e27c6948)"><path fill="#bc1823" d="M 165.441406 203.667969 L 164.8125 172.175781 L 199.304688 171.484375 L 165.441406 203.667969 " fill-opacity="1" fill-rule="nonzero"/></g></g><g clip-path="url(#faef72e280)"><g clip-path="url(#e40ea5f818)"><path fill="#bc1823" d="M 203.019531 167.839844 L 202.390625 136.355469 L 236.882812 135.667969 L 203.019531 167.839844 " fill-opacity="1" fill-rule="nonzero"/></g></g><g clip-path="url(#38eda05fe9)"><g clip-path="url(#f8310feb28)"><path fill="#bc1823" d="M 226.007812 165.429688 L 235.0625 173.300781 L 226.207031 183.488281 L 226.007812 165.429688 " fill-opacity="1" fill-rule="nonzero"/></g></g><g clip-path="url(#48ab348169)"><g clip-path="url(#13860e3dcf)"><path fill="#bc1823" d="M 125.3125 121.972656 L 124.980469 133.964844 L 111.484375 133.589844 L 125.3125 121.972656 " fill-opacity="1" fill-rule="nonzero"/></g></g><g clip-path="url(#f83f032445)"><g clip-path="url(#22e0832f7a)"><path fill="#bc1823" d="M 123.980469 242.449219 L 119.75 247.710938 L 113.910156 243.011719 L 123.980469 242.449219 " fill-opacity="1" fill-rule="nonzero"/></g></g><g clip-path="url(#d5b5953285)"><g clip-path="url(#2f15ed08ea)"><path fill="#bc1823" d="M 128.484375 238.925781 L 127.835938 206.6875 L 163.082031 205.984375 L 128.484375 238.925781 " fill-opacity="1" fill-rule="nonzero"/></g></g><g clip-path="url(#9c727f90c3)"><g clip-path="url(#969b084c58)"><g clip-path="url(#793778bbed)"><path fill="#145da0" d="M 251.910156 124.316406 C 286.570312 160.53125 285.3125 217.964844 249.101562 252.621094 C 212.894531 287.28125 155.570312 285.914062 120.910156 249.703125 Z M 251.910156 124.316406 " fill-opacity="1" fill-rule="nonzero"/></g></g></g><path stroke-linecap="butt" transform="matrix(2.165071, -2.080185, 2.078488, 2.163305, 117.747923, 252.752767)" fill="none" stroke-linejoin="miter" d="M -0.000702168 -0.00014875 L 62.20293 0.0000865303 " stroke="#d4af03" stroke-width="1" stroke-opacity="1" stroke-miterlimit="4"/><g clip-path="url(#2e474bb3ae)"><path fill="#ffffff" d="M 208.785156 214.453125 C 195.898438 214.453125 185.519531 224.835938 185.519531 237.722656 C 185.519531 250.605469 195.898438 260.988281 208.785156 260.988281 C 221.550781 260.988281 232.050781 250.605469 232.050781 237.722656 C 232.050781 224.835938 221.550781 214.453125 208.785156 214.453125 Z M 208.785156 257.40625 C 197.929688 257.40625 189.097656 248.578125 189.097656 237.722656 C 189.097656 226.863281 197.929688 218.035156 208.785156 218.035156 C 219.644531 218.035156 228.472656 226.863281 228.472656 237.722656 C 228.472656 248.578125 219.644531 257.40625 208.785156 257.40625 Z M 208.785156 257.40625 " fill-opacity="1" fill-rule="nonzero"/></g><path fill="#145da0" d="M 208.785156 218.035156 C 197.929688 218.035156 189.097656 226.863281 189.097656 237.722656 C 189.097656 248.578125 197.929688 257.40625 208.785156 257.40625 C 219.644531 257.40625 228.472656 248.578125 228.472656 237.722656 C 228.472656 226.863281 219.644531 218.035156 208.785156 218.035156 Z M 208.785156 218.035156 " fill-opacity="1" fill-rule="nonzero"/><path stroke-linecap="butt" transform="matrix(0.000000000000000183, 2.990266, -3, 0.000000000000000184, 230.547309, 169.100408)" fill="none" stroke-linejoin="miter" d="M 0.000386054 0.00014452 L 30.100656 0.00014452 " stroke="#ffffff" stroke-width="1" stroke-opacity="1" stroke-miterlimit="4"/><path stroke-linecap="butt" transform="matrix(2.96942, 0, 0, 3, 202.185944, 169.095253)" fill="none" stroke-linejoin="miter" d="M 0.000524 -0.000500965 L 11.115122 -0.000500965 " stroke="#ffffff" stroke-width="1" stroke-opacity="1" stroke-miterlimit="4"/><path stroke-linecap="butt" transform="matrix(2.934125, -0.117334, 0.119873, 2.997604, 229.802481, 257.899584)" fill="none" stroke-linejoin="miter" d="M -0.000562647 -0.000404451 L 3.322414 -0.000646596 " stroke="#ffffff" stroke-width="1" stroke-opacity="1" stroke-miterlimit="4"/><path stroke-linecap="butt" transform="matrix(0.000000000000000183, 2.990266, -3, 0.000000000000000184, 232.527894, 167.600408)" fill="none" stroke-linejoin="miter" d="M 0.000386021 0.000183427 L 30.100656 0.000183427 " stroke="#ffffff" stroke-width="1" stroke-opacity="1" stroke-miterlimit="4"/><path stroke-linecap="butt" transform="matrix(0.000000000000000183, 2.990266, -3, 0.000000000000000184, 234.777894, 166.850408)" fill="none" stroke-linejoin="miter" d="M 0.000386005 0.000183378 L 30.100656 0.000183378 " stroke="#ffffff" stroke-width="1" stroke-opacity="1" stroke-miterlimit="4"/><path stroke-linecap="butt" transform="matrix(2.96942, 0, 0, 3, 202.185944, 167.586025)" fill="none" stroke-linejoin="miter" d="M 0.000524 -0.0000291651 L 11.115122 -0.0000291651 " stroke="#ffffff" stroke-width="1" stroke-opacity="1" stroke-miterlimit="4"/><path stroke-linecap="butt" transform="matrix(2.96942, 0, 0, 3, 202.185944, 165.345253)" fill="none" stroke-linejoin="miter" d="M 0.000524 -0.000501047 L 11.115122 -0.000501047 " stroke="#ffffff" stroke-width="1" stroke-opacity="1" stroke-miterlimit="4"/><g clip-path="url(#02e1280363)"><path fill="#ffffff" d="M 201.507812 162.09375 L 237.496094 162.09375 L 237.496094 170.347656 L 201.507812 170.347656 Z M 201.507812 162.09375 " fill-opacity="1" fill-rule="nonzero"/></g><path stroke-linecap="butt" transform="matrix(-0.0384633, 2.988354, -2.999751, -0.03861, 236.012655, 162.844266)" fill="none" stroke-linejoin="miter" d="M -0.000168644 0.000314406 L 31.872263 0.000529223 " stroke="#ffffff" stroke-width="1" stroke-opacity="1" stroke-miterlimit="4"/><g clip-path="url(#f9aee43572)"><path fill="#ffffff" d="M 229.75 255.390625 L 244.738281 255.390625 L 244.738281 259.140625 L 229.75 259.140625 Z M 229.75 255.390625 " fill-opacity="1" fill-rule="nonzero"/></g><g clip-path="url(#e8b2a5c104)"><path fill="#ffffff" d="M 229.863281 252.078125 L 244.851562 252.078125 L 244.851562 255.828125 L 229.863281 255.828125 Z M 229.863281 252.078125 " fill-opacity="1" fill-rule="nonzero"/></g><g clip-path="url(#b150ceb5eb)"><path fill="#ffffff" d="M 208.71875 210.648438 C 194.007812 210.648438 182.09375 222.5625 182.09375 237.273438 C 182.09375 251.980469 194.007812 263.898438 208.71875 263.898438 C 223.429688 263.898438 235.34375 251.980469 235.34375 237.273438 C 235.34375 222.5625 223.429688 210.648438 208.71875 210.648438 Z M 208.71875 258.570312 C 196.953125 258.570312 187.417969 249.039062 187.417969 237.273438 C 187.417969 225.503906 196.953125 215.972656 208.71875 215.972656 C 220.488281 215.972656 230.019531 225.503906 230.019531 237.273438 C 230.019531 249.039062 220.488281 258.570312 208.71875 258.570312 Z M 208.71875 258.570312 " fill-opacity="1" fill-rule="nonzero"/></g><g clip-path="url(#8f74831fe1)"><path fill="#d4af03" d="M 187.421875 282.972656 C 161.914062 282.972656 137.894531 273.042969 119.867188 254.980469 C 101.804688 236.953125 91.875 212.933594 91.875 187.421875 C 91.875 161.914062 101.804688 137.894531 119.867188 119.867188 C 137.894531 101.804688 161.914062 91.875 187.421875 91.875 C 212.933594 91.875 236.953125 101.804688 254.980469 119.867188 C 273.042969 137.929688 282.972656 161.914062 282.972656 187.421875 C 282.972656 212.933594 273.042969 236.953125 254.980469 254.980469 C 236.953125 273.042969 212.933594 282.972656 187.421875 282.972656 Z M 187.421875 97.601562 C 163.441406 97.601562 140.871094 106.960938 123.914062 123.914062 C 106.960938 140.871094 97.601562 163.441406 97.601562 187.421875 C 97.601562 211.40625 106.960938 233.976562 123.914062 250.933594 C 140.871094 267.886719 163.441406 277.242188 187.421875 277.242188 C 211.40625 277.242188 233.976562 267.886719 250.933594 250.933594 C 267.886719 233.976562 277.242188 211.40625 277.242188 187.421875 C 277.242188 163.441406 267.886719 140.871094 250.933594 123.914062 C 233.976562 106.960938 211.40625 97.601562 187.421875 97.601562 Z M 187.421875 97.601562 " fill-opacity="1" fill-rule="nonzero"/></g></svg>